<mxfile host="app.diagrams.net" modified="2023-11-28T10:54:53.608Z" agent="Mozilla/5.0 (Macintosh; Intel Mac OS X 10_15_7) AppleWebKit/537.36 (KHTML, like Gecko) Chrome/119.0.0.0 Safari/537.36" etag="yIMlArU0vZKTSWUW1pFO" version="22.1.4" type="github">
  <diagram name="第 1 页" id="t6GjhfTUwoRSVAK738np">
    <mxGraphModel dx="1434" dy="821" grid="1" gridSize="10" guides="1" tooltips="1" connect="1" arrows="1" fold="1" page="1" pageScale="1" pageWidth="827" pageHeight="1169" math="0" shadow="0">
      <root>
        <mxCell id="0" />
        <mxCell id="1" parent="0" />
        <mxCell id="GGgzY0nHG8RH5oibdmJK-1" value="http basic authentication" style="rounded=1;whiteSpace=wrap;html=1;" vertex="1" parent="1">
          <mxGeometry x="220" y="280" width="250" height="60" as="geometry" />
        </mxCell>
        <mxCell id="GGgzY0nHG8RH5oibdmJK-2" value="http digest authentication" style="rounded=1;whiteSpace=wrap;html=1;" vertex="1" parent="1">
          <mxGeometry x="220" y="402" width="250" height="60" as="geometry" />
        </mxCell>
        <mxCell id="GGgzY0nHG8RH5oibdmJK-3" value="session-based" style="rounded=1;whiteSpace=wrap;html=1;" vertex="1" parent="1">
          <mxGeometry x="220" y="524" width="250" height="60" as="geometry" />
        </mxCell>
        <mxCell id="GGgzY0nHG8RH5oibdmJK-4" value="token-based" style="rounded=1;whiteSpace=wrap;html=1;" vertex="1" parent="1">
          <mxGeometry x="220" y="646" width="250" height="60" as="geometry" />
        </mxCell>
        <mxCell id="GGgzY0nHG8RH5oibdmJK-5" value="one-time passwd" style="rounded=1;whiteSpace=wrap;html=1;" vertex="1" parent="1">
          <mxGeometry x="220" y="768" width="250" height="60" as="geometry" />
        </mxCell>
        <mxCell id="GGgzY0nHG8RH5oibdmJK-6" value="social login" style="rounded=1;whiteSpace=wrap;html=1;" vertex="1" parent="1">
          <mxGeometry x="220" y="890" width="250" height="60" as="geometry" />
        </mxCell>
      </root>
    </mxGraphModel>
  </diagram>
</mxfile>
